<svg width="210" height="24" viewBox="0 0 210 24" fill="none" xmlns="http://www.w3.org/2000/svg">
<path fill="#fff" fill-rule="evenodd" clip-rule="evenodd" d="M3.96132 23.4993H0V0H6.51268L10.3397 12.0854C11.2461 15.006 11.9511 17.4567 12.3875 19.2359H12.4211C12.8911 17.4567 13.7303 14.4353 14.4353 12.1189L18.2623 0H24.7415V23.4993H20.7801V9.70187C20.7801 8.86261 20.8473 5.77413 20.9144 3.72632H20.8473C20.0752 6.41196 19.3366 8.92975 18.9673 10.0711L14.6032 23.4993H10.1047L5.77412 10.004C5.51934 9.21649 5.04082 7.59796 4.54807 5.93129L4.54797 5.93096L4.54792 5.93077L4.5477 5.93006L4.54756 5.92958C4.3263 5.18119 4.10218 4.42315 3.89418 3.72632H3.82704C3.8434 4.72471 3.87573 5.99439 3.90456 7.12689C3.93487 8.31729 3.96132 9.35613 3.96132 9.76901V23.4993ZM45.0804 15.1067C45.0804 20.3773 41.7234 23.9022 36.5535 23.9022C31.1823 23.9022 27.9595 20.5787 27.9595 15.1067C27.9595 10.004 31.2158 6.31125 36.5535 6.31125C41.8241 6.31125 45.0804 10.0376 45.0804 15.1067ZM32.2229 15.1067C32.2229 19.1016 33.3979 20.9816 36.5535 20.9816C39.642 20.9816 40.817 19.1016 40.817 15.1067C40.817 11.1118 39.6085 9.23188 36.5535 9.23188C33.4315 9.23188 32.2229 11.1118 32.2229 15.1067ZM61.7388 8.02335C60.5974 6.84838 59.221 6.31125 57.0389 6.31125C54.6218 6.31125 52.809 7.21766 51.9697 9.26546V6.7141H48.0084V23.4993H52.0033V14.301C52.0033 10.239 54.1854 9.43331 55.6625 9.43331C56.636 9.43331 57.4417 9.50045 58.1803 10.239C59.0531 11.0447 59.1203 12.1189 59.1203 13.6632V23.4993H63.1487V13.3611C63.1487 11.3468 63.048 9.36617 61.7388 8.02335ZM80.4504 18.5981C80.4504 22.6601 76.9255 23.9022 73.2327 23.9022C69.305 23.9022 65.9143 22.1901 65.7801 18.1616L69.5064 17.7252C69.54 19.9073 71.0506 21.0487 73.2663 21.0487C75.5155 21.0487 76.6905 20.243 76.6905 18.833C76.6905 17.5544 75.1309 17.1814 73.0786 16.6905L73.0783 16.6904L73.0769 16.6901C72.7589 16.614 72.429 16.5351 72.0913 16.4495C69.1035 15.6774 66.25 14.7374 66.25 11.3468C66.25 7.75478 69.5064 6.31125 72.8634 6.31125C76.5226 6.31125 79.6447 7.65407 80.0139 11.649L76.3548 12.2532C76.2541 10.1719 74.9784 9.16474 72.8634 9.16474C71.3863 9.16474 70.0099 9.73544 70.0099 11.0447C70.0099 12.3539 71.5542 12.7568 73.7027 13.2268L73.9249 13.2763C77.0244 13.9665 80.4504 14.7294 80.4504 18.5981ZM89.3544 23.6672C90.2272 23.6672 91.0665 23.5665 91.5701 23.4658L91.5029 20.008C90.9322 20.1087 90.3615 20.1759 89.9587 20.1759C88.7501 20.1759 88.213 19.9409 88.213 18.9338V9.9033H91.6372V6.7141H88.213V2.0478H84.2853V6.7141H81.8682V9.9033H84.2853V19.2695C84.2853 22.4251 86.1652 23.6672 89.3544 23.6672ZM104.828 21.1158C103.955 22.7608 102.142 23.9022 99.3555 23.9022C96.2671 23.9022 93.5478 22.2572 93.5478 18.8666C93.5478 15.241 96.5692 14.2339 99.6241 13.6632L104.626 12.7232C104.626 11.6154 104.593 10.8433 104.123 10.1719C103.686 9.56759 102.847 9.26546 101.437 9.26546C99.1541 9.26546 98.0799 10.1047 98.0463 12.3875L94.1521 11.884C94.2528 9.90329 94.9578 8.49333 96.2335 7.6205C97.5092 6.74767 99.3555 6.31125 101.705 6.31125C106.003 6.31125 108.453 8.1912 108.453 11.8504V20.478C108.453 21.5858 108.688 22.5594 109.024 23.3651V23.4993H105.063C104.928 22.8615 104.828 22.1565 104.828 21.1158ZM97.6434 18.833C97.6434 20.243 98.7848 20.9144 100.228 20.9144C103.048 20.9144 104.626 19.5045 104.626 17.0538V15.5096L100.262 16.4495C98.6841 16.7852 97.6434 17.3224 97.6434 18.833ZM121.45 6.31125C118.664 6.41197 116.683 7.68764 116.079 9.73544V6.7141H112.118V23.4993H116.112V15.8117C116.112 11.179 118.093 9.9033 121.249 9.9033C121.551 9.9033 121.853 9.90329 122.088 9.93687L122.189 6.31125H121.45ZM128.304 23.4993H124.309V0H128.304V23.4993ZM137.209 23.9022C139.995 23.9022 141.808 22.7608 142.681 21.1158C142.681 22.1565 142.782 22.8615 142.916 23.4993H146.877V23.3651C146.541 22.5594 146.306 21.5858 146.306 20.478V11.8504C146.306 8.1912 143.856 6.31125 139.559 6.31125C137.209 6.31125 135.363 6.74767 134.087 7.6205C132.811 8.49333 132.106 9.90329 132.005 11.884L135.9 12.3875C135.933 10.1047 137.007 9.26546 139.29 9.26546C140.7 9.26546 141.539 9.56759 141.976 10.1719C142.446 10.8433 142.479 11.6154 142.479 12.7232L137.477 13.6632C134.423 14.2339 131.401 15.241 131.401 18.8666C131.401 22.2572 134.12 23.9022 137.209 23.9022ZM138.082 20.9144C136.638 20.9144 135.497 20.243 135.497 18.833C135.497 17.3224 136.537 16.7852 138.115 16.4495L142.479 15.5096V17.0538C142.479 19.5045 140.902 20.9144 138.082 20.9144ZM153.966 8.79547C155.074 7.18408 156.92 6.27768 159.069 6.27768C163.5 6.27768 166.555 9.80258 166.555 15.1067C166.555 20.5451 163.433 23.9022 158.968 23.9022C156.786 23.9022 154.939 22.7944 153.966 21.183V23.4993H149.971V0H153.966V8.79547ZM153.865 15.1403C153.865 18.9338 155.241 20.9816 158.028 20.9816C161.183 20.9816 162.224 18.9338 162.224 15.1067C162.224 11.2461 161.15 9.23188 157.994 9.23188C154.771 9.23188 153.865 11.7832 153.865 15.1403ZM209.396 0.0205075H204.601V4.81629H209.396V0.0205075ZM185.417 19.2044H190.213V24.0002H185.417V19.2044ZM204.601 19.2044H209.396V24.0002H204.601V19.2044ZM185.417 0.0205075H190.213V4.81629H185.417V0.0205075Z" />
</svg>
